<?xml version="1.0" encoding="UTF-8"?>
<svg xmlns="http://www.w3.org/2000/svg" viewBox="0 0 500 500" width="500" height="500">
<path d="M300.1 323.5C266.07 323.43 232.03 323.36 197.99 323.29C162.16 218.94 126.33 114.6 90.5 10.25C116.18 10.25 141.86 10.25 167.54 10.25C194.78 97.65 222.01 185.05 249.25 272.44C276.42 185.05 303.58 97.65 330.75 10.25C356.41 10.22 382.08 10.2 407.75 10.17C371.87 114.62 335.98 219.06 300.1 323.5ZM244 340.49C247.67 340.49 251.33 340.49 255 340.49C267.68 340.87 280.36 350.34 286.75 360.97C288.1 363.22 292.16 374.56 292.78 375.01C296.27 376.72 307.26 375.5 311.75 375.5C327.25 375.5 342.75 375.5 358.25 375.5C362.92 375.5 367.58 375.5 372.25 375.5C374.02 375.5 376.72 375.97 377.85 374.85C379.19 373.49 378.5 369.36 378.5 367.25C378.5 359.96 378.62 352.65 378.5 345.36C386.58 347.23 394.75 351.63 402.46 354.75C417.56 360.87 432.87 366.51 447.91 372.8C453.82 375.27 459.83 377.63 465.83 379.88C468.32 380.81 472.36 381.64 473.91 383.75C442.1 396.38 410.3 409.01 378.5 421.64C378.62 414.35 378.5 407.04 378.5 399.75C378.5 397.64 379.19 393.51 377.85 392.15C376.72 391.03 374.02 391.5 372.25 391.5C367.58 391.5 362.92 391.5 358.25 391.5C342.75 391.5 327.25 391.5 311.75 391.5C307.26 391.5 296.27 390.28 292.78 391.99C291.41 392.98 291.32 395.98 290.77 397.57C289.57 401.04 287.84 404.5 285.79 407.56C279.32 417.21 269.95 422.68 259.15 426.13C257.56 427.76 258.5 433.71 258.5 436.25C258.5 445.75 258.5 455.25 258.5 464.75C258.5 467.43 257.45 474.12 259.15 475.85C260.4 477.08 263.81 476.5 265.75 476.5C271.11 476.5 277.28 475.69 282.5 476.75C282.42 480.67 282.33 484.59 282.25 488.5C260.67 488.42 239.08 488.33 217.5 488.25C217.58 484.33 217.67 480.41 217.75 476.5C223.42 476.5 229.08 476.5 234.75 476.5C236.61 476.5 239.66 477.02 240.85 475.85C242.6 474.07 241.5 467.01 241.5 464.25C241.5 455.42 241.5 446.58 241.5 437.75C241.49 434.55 242.33 429.49 241.01 426.78C239.76 425.06 234.97 424.63 232.9 423.79C227.81 421.72 223.08 418.44 219.11 414.64C214.91 410.62 211.38 405.47 209.21 400.11C208.37 398.04 207.94 393.24 206.22 391.99C174.48 391.98 142.74 391.98 111 391.98C108.01 392.91 105.68 398.14 103.86 400.63C98.88 407.45 94.42 415.5 88.65 421.62C70.21 421.62 51.77 421.63 33.33 421.63C32.93 419.74 38.34 413.4 39.72 411.48C44.53 404.77 49.26 398.02 54.11 391.35C55.52 389.41 59.03 386.04 59.24 383.63C59.44 381.41 55.55 377.69 54.31 375.95C49.18 368.74 44.08 361.51 38.88 354.36C37.42 352.34 32.83 347.76 33.33 345.37C51.77 345.37 70.21 345.38 88.65 345.38C94.42 351.5 98.88 359.55 103.86 366.37C105.68 368.86 108.01 374.09 111 375.02C142.74 375.02 174.48 375.02 206.22 375.01C207.55 374.05 210.01 364.94 211.32 362.56C217.59 351.17 230.66 340.89 244 340.49ZM245.89 358.23C212.85 363.43 220.57 413.97 253.11 408.77C286.15 403.5 278.46 353.1 245.89 358.23Z" fill="#00add8" fill-rule="evenodd" stroke="#00add8" stroke-width="0.25" stroke-linejoin="round"/>
<path d="M197.99 323.29C232.03 323.36 266.07 323.43 300.1 323.5C297.51 325.38 282.85 324.17 278.75 324.17C259.42 324.17 240.08 324.17 220.75 324.17C215.25 324.17 209.75 324.17 204.25 324.17C202.18 324.17 199.36 324.72 197.99 323.29ZM255 340.49C251.33 340.49 247.67 340.49 244 340.49C245.99 339.2 253.01 339.19 255 340.49ZM88.65 345.38C70.21 345.38 51.77 345.37 33.33 345.37C51.77 345.37 70.21 345.38 88.65 345.38ZM378.5 345.36C378.62 352.65 378.5 359.96 378.5 367.25C378.5 369.36 379.19 373.49 377.85 374.85C377.48 367.95 377.82 360.74 377.82 353.75C377.82 351.25 377.13 347.33 378.5 345.36ZM111 375.02C142.74 375.02 174.48 375.02 206.22 375.01C174.48 375.02 142.74 375.02 111 375.02ZM292.78 375.01C321.14 374.96 349.5 374.91 377.85 374.85C376.72 375.97 374.02 375.5 372.25 375.5C367.58 375.5 362.92 375.5 358.25 375.5C342.75 375.5 327.25 375.5 311.75 375.5C307.26 375.5 296.27 376.72 292.78 375.01ZM206.22 391.99C174.48 391.98 142.74 391.98 111 391.98C142.74 391.98 174.48 391.98 206.22 391.99ZM377.85 392.15C349.5 392.09 321.14 392.04 292.78 391.99C296.27 390.28 307.26 391.5 311.75 391.5C327.25 391.5 342.75 391.5 358.25 391.5C362.92 391.5 367.58 391.5 372.25 391.5C374.02 391.5 376.72 391.03 377.85 392.15ZM377.85 392.15C379.19 393.51 378.5 397.64 378.5 399.75C378.5 407.04 378.62 414.35 378.5 421.64C377.13 419.67 377.82 415.75 377.82 413.25C377.82 406.26 377.48 399.05 377.85 392.15ZM33.33 421.63C51.77 421.63 70.21 421.62 88.65 421.62C70.21 421.62 51.77 421.63 33.33 421.63ZM259.15 426.13C259.15 442.7 259.15 459.28 259.15 475.85C257.45 474.12 258.5 467.43 258.5 464.75C258.5 455.25 258.5 445.75 258.5 436.25C258.5 433.71 257.56 427.76 259.15 426.13ZM241.01 426.78C242.33 429.49 241.49 434.55 241.5 437.75C241.5 446.58 241.5 455.42 241.5 464.25C241.5 467.01 242.6 474.07 240.85 475.85C240.91 459.5 240.96 443.14 241.01 426.78ZM240.85 475.85C239.66 477.02 236.61 476.5 234.75 476.5C229.08 476.5 223.42 476.5 217.75 476.5C217.67 480.41 217.58 484.33 217.5 488.25C239.08 488.33 260.67 488.42 282.25 488.5C282.33 484.59 282.42 480.67 282.5 476.75C277.28 475.69 271.11 476.5 265.75 476.5C263.81 476.5 260.4 477.08 259.15 475.85C267.12 475.99 275.1 476.12 283.07 476.25C282.96 480.52 282.86 484.8 282.75 489.07C260.81 488.96 238.87 488.86 216.93 488.75C217.04 484.48 217.14 480.2 217.25 475.93C225.12 475.9 232.99 475.88 240.85 475.85Z" fill="#42a2ba" fill-rule="evenodd" stroke="#42a2ba" stroke-width="0.25" stroke-linejoin="round"/>
</svg>